<svg viewBox="0 0 62 62" fill="none" xmlns="http://www.w3.org/2000/svg">
<rect width="62" height="62" rx="18" fill="#1D97E5"/>
<path d="M46.1366 29.005L43.9833 26.5033C43.5716 26.0283 43.2391 25.1417 43.2391 24.5083V21.8167C43.2391 20.1383 41.8616 18.7608 40.1833 18.7608H37.4916C36.8741 18.7608 35.9716 18.4283 35.4966 18.0167L32.995 15.8633C31.9025 14.9292 30.1133 14.9292 29.005 15.8633L26.5191 18.0325C26.0441 18.4283 25.1416 18.7608 24.5241 18.7608H21.785C20.1066 18.7608 18.7291 20.1383 18.7291 21.8167V24.5242C18.7291 25.1417 18.3966 26.0283 18.0008 26.5033L15.8633 29.0208C14.945 30.1133 14.945 31.8867 15.8633 32.9792L18.0008 35.4967C18.3966 35.9717 18.7291 36.8583 18.7291 37.4758V40.1833C18.7291 41.8617 20.1066 43.2392 21.785 43.2392H24.5241C25.1416 43.2392 26.0441 43.5717 26.5191 43.9833L29.0208 46.1367C30.1133 47.0708 31.9025 47.0708 33.0108 46.1367L35.5125 43.9833C35.9875 43.5717 36.8741 43.2392 37.5075 43.2392H40.1991C41.8775 43.2392 43.255 41.8617 43.255 40.1833V37.4917C43.255 36.8742 43.5875 35.9717 43.9991 35.4967L46.1525 32.995C47.0708 31.9025 47.0708 30.0975 46.1366 29.005ZM37.5866 28.0075L29.9391 35.655C29.7175 35.8767 29.4166 36.0033 29.1 36.0033C28.7833 36.0033 28.4825 35.8767 28.2608 35.655L24.4291 31.8233C23.97 31.3642 23.97 30.6042 24.4291 30.145C24.8883 29.6858 25.6483 29.6858 26.1075 30.145L29.1 33.1375L35.9083 26.3292C36.3675 25.87 37.1275 25.87 37.5866 26.3292C38.0458 26.7883 38.0458 27.5483 37.5866 28.0075Z" fill="url(#paint0_radial_36_655)"/>
<defs>
<radialGradient id="paint0_radial_36_655" cx="0" cy="0" r="1" gradientTransform="matrix(30.0288 8.55136 -8.35996 15.548 31.0069 31)" gradientUnits="userSpaceOnUse">
<stop stop-color="white"/>
<stop offset="0.406045" stop-color="white" stop-opacity="0.731985"/>
<stop offset="1" stop-color="white" stop-opacity="0"/>
</radialGradient>
</defs>
</svg>
