<svg viewBox="0 0 173 109" fill="none" xmlns="http://www.w3.org/2000/svg">
<path d="M55.3159 29.7243C54.8603 28.3298 55.3305 21.0762 52.7626 7.00069C52.7383 6.92346 52.6902 6.85448 52.6242 6.80226C52.5581 6.75005 52.477 6.71688 52.3908 6.70684C52.3047 6.6968 52.2172 6.71033 52.1393 6.74576C52.0613 6.78119 51.9962 6.83698 51.9521 6.90625C50.298 9.85724 48.5896 12.7935 47.0521 15.8009C46.0489 14.5428 45.0012 13.3156 43.9107 12.1214C43.092 10.9768 42.0221 10.0047 40.7707 9.26852C40.4264 9.11765 39.8437 9.38135 40.0212 9.79346C42.0831 14.4542 44.3703 19.0034 46.6667 23.5488C46.8746 23.9597 47.4613 23.7745 47.5937 23.436C48.4916 21.281 49.8027 19.3272 50.8555 17.2433C51.6853 21.5585 52.9262 25.7972 54.5637 29.9095C54.7411 30.3266 55.4563 30.1561 55.3159 29.7243Z" fill="#364049"/>
<path d="M117.892 34.0377C118.096 34.1182 118.323 34.133 118.537 34.0796C118.751 34.0262 118.94 33.9078 119.073 33.7434C123.813 27.8806 128.757 21.6009 133.851 16.0251C133.915 15.9589 133.955 15.8753 133.964 15.7867C133.973 15.698 133.95 15.6091 133.9 15.5332C133.85 15.4573 133.775 15.3984 133.685 15.3652C133.596 15.3321 133.498 15.3265 133.405 15.3493C130.31 16.2079 127.245 17.1891 124.247 18.3138C124.895 15.4438 125.565 12.5615 126.171 9.68282C126.283 9.16033 125.252 8.62066 124.956 9.15665C122.351 13.8714 119.686 18.5677 117.034 23.2493C116.853 23.5694 117.154 24.1079 117.602 23.9435C120.31 22.943 122.979 21.854 125.605 20.6785C120.344 28.852 118.994 30.8108 117.591 33.2454C117.551 33.3151 117.527 33.3917 117.52 33.4704C117.514 33.5491 117.525 33.6282 117.554 33.7027C117.582 33.7772 117.626 33.8454 117.685 33.9031C117.743 33.9608 117.813 34.0066 117.892 34.0377Z" fill="#364049"/>
<path d="M171.311 17.091C165.999 3.15037 121.167 -7.72146 98.976 7.08872C96.3035 8.8733 92.855 11.4048 93.0404 14.7826C93.2205 18.0857 96.4214 20.302 99.625 21.0317C101.556 21.4054 103.533 21.5317 105.501 21.4071C105.607 21.4015 105.707 21.3586 105.78 21.2871C105.853 21.2156 105.893 21.1209 105.893 21.0225C105.893 20.9242 105.853 20.8295 105.78 20.758C105.707 20.6865 105.607 20.6436 105.501 20.638C102.021 20.3106 97.9934 20.1793 95.5924 17.4847C95.0818 16.9539 94.7175 16.3166 94.5307 15.6271C94.3439 14.9377 94.3401 14.2166 94.5197 13.5255C95.0914 12.0452 96.1111 10.7487 97.457 9.79073C112.025 -2.10647 140.339 -0.0336609 156.479 6.92068C162.915 9.69383 169.596 13.3268 170.601 19.8114C171.685 26.8025 166.832 34.9932 154.493 39.0456C149.702 36.4286 144.105 35.3656 138.588 36.0247C137.149 36.1817 134.299 36.5668 133.178 37.4131C132.904 37.6371 132.68 37.909 132.519 38.2133C132.358 38.5176 132.264 38.8483 132.241 39.1864C132.218 39.5246 132.268 39.8635 132.387 40.1839C132.506 40.5043 132.692 40.7997 132.935 41.0534C134.064 42.4087 136.015 42.573 137.717 42.6307C143.319 42.8267 148.914 42.0825 154.23 40.434C161.181 44.7268 161.938 52.0319 157.816 56.0843C155.671 57.9632 153.063 59.329 150.219 60.0632C148.84 60.4949 147.4 60.9597 145.981 61.2823C145.915 61.2984 145.854 61.3263 145.801 61.3643C145.747 61.4023 145.702 61.4497 145.668 61.5038C145.634 61.5579 145.612 61.6176 145.604 61.6796C145.595 61.7415 145.599 61.8045 145.616 61.8649C145.634 61.9253 145.664 61.9819 145.705 62.0316C145.746 62.0812 145.797 62.1229 145.856 62.1542C145.914 62.1855 145.978 62.2059 146.045 62.2141C146.112 62.2224 146.18 62.2183 146.246 62.2022C147.905 61.8171 149.548 61.5632 151.189 61.0763C155.999 59.6474 160.46 56.9282 161.503 52.3312C162.483 48.0274 160.642 43.1961 155.83 39.8723C169.881 34.9981 174.141 24.5126 171.311 17.091ZM142.017 41.3392C139.95 41.4446 135.487 41.7304 134.195 40.4389C133.922 40.2163 133.743 39.9105 133.691 39.5766C133.639 39.2428 133.717 38.9027 133.912 38.6175C134.455 38.1699 135.135 37.8885 135.857 37.8117C141.535 36.535 147.519 37.1733 152.735 39.6122C149.25 40.5846 145.651 41.1644 142.017 41.3392Z" fill="#364049"/>
<path d="M27.3555 107.937C21.0159 104.38 13.7148 100.823 10.2954 94.4071C8.25062 90.5779 8.20824 86.2447 8.61349 82.0966C8.82903 78.7253 9.72755 75.4216 11.2622 72.3581C11.3037 72.2646 11.358 72.1764 11.4237 72.0956C13.1382 72.2145 14.8602 71.9894 16.4722 71.4357C18.0842 70.882 19.5482 70.0126 20.7643 68.887C22.3071 67.2742 20.6835 65.2075 18.5765 65.3019C16.5694 65.58 14.7175 66.4638 13.3083 67.8163C12.2767 68.7232 11.3961 69.7669 10.6953 70.9132C7.27061 70.5943 3.53069 68.9766 1.94148 66.0722C-0.0145586 62.4969 1.45678 53.3078 11.282 45.5047C15.255 42.355 20.2398 39.7401 25.5663 36.7965C25.6349 36.7538 25.6834 36.6887 25.7023 36.6142C25.7212 36.5398 25.7089 36.4614 25.668 36.395C25.6271 36.3285 25.5606 36.2789 25.4818 36.256C25.403 36.2331 25.3177 36.2386 25.2432 36.2715C16.6429 40.2724 7.65864 45.0656 2.87382 53.141C0.81183 56.6219 -0.753534 61.8076 0.381421 65.4319C1.55081 69.1679 6.01382 71.4419 9.94577 71.9631C9.9855 71.9631 10.0464 71.9815 10.0875 71.9815C7.44757 77.7238 6.57264 84.03 7.55931 90.2039C9.03462 98.0769 16.4959 103.78 24.1771 107.261C25.1293 107.693 26.0921 108.085 27.0337 108.518C27.1159 108.551 27.2085 108.553 27.2926 108.525C27.3767 108.497 27.4461 108.44 27.4869 108.366C27.5277 108.293 27.5369 108.207 27.5125 108.128C27.4881 108.048 27.432 107.98 27.3555 107.937ZM14.3267 68.4921C15.4815 67.5244 18.0785 65.9164 19.473 66.5591C21.7019 67.5918 17.8335 69.6021 16.8601 70.0117C15.3734 70.6238 13.7658 70.9433 12.1389 70.95C12.7402 70.0398 13.4766 69.2124 14.3267 68.4921Z" fill="#364049"/>
</svg>
