<svg viewBox="0 0 126 34" fill="none" xmlns="http://www.w3.org/2000/svg">
<path d="M23.0752 9.19178H18.2939C18.1576 8.40769 17.9061 7.71309 17.5397 7.10798C17.1732 6.49434 16.7172 5.97445 16.1718 5.54832C15.6263 5.12218 15.0042 4.80258 14.3053 4.58951C13.6149 4.36792 12.8692 4.25712 12.0681 4.25712C10.6448 4.25712 9.38341 4.61508 8.28398 5.33099C7.18455 6.03837 6.32375 7.07815 5.70159 8.45031C5.07943 9.81394 4.76836 11.4801 4.76836 13.4489C4.76836 15.4517 5.07943 17.1392 5.70159 18.5114C6.33228 19.875 7.19307 20.9063 8.28398 21.6051C9.38341 22.2955 10.6405 22.6406 12.0553 22.6406C12.8394 22.6406 13.5723 22.5384 14.2542 22.3338C14.9445 22.1208 15.5624 21.8097 16.1078 21.4006C16.6618 20.9915 17.1263 20.4887 17.5013 19.8921C17.8848 19.2955 18.149 18.6137 18.2939 17.8466L23.0752 17.8722C22.8962 19.1165 22.5084 20.2841 21.9118 21.375C21.3238 22.4659 20.5524 23.429 19.5979 24.2642C18.6434 25.0909 17.5269 25.7387 16.2485 26.2074C14.9701 26.6676 13.551 26.8977 11.9914 26.8977C9.69023 26.8977 7.63625 26.3651 5.82943 25.2997C4.02262 24.2344 2.59932 22.696 1.55955 20.6847C0.519775 18.6733 -0.000110924 16.2614 -0.000110924 13.4489C-0.000110924 10.6279 0.524037 8.21593 1.57233 6.21309C2.62063 4.20173 4.04818 2.66337 5.855 1.59803C7.66182 0.532691 9.70728 2.12193e-05 11.9914 2.12193e-05C13.4488 2.12193e-05 14.8039 0.204566 16.0567 0.613657C17.3095 1.02275 18.426 1.6236 19.4061 2.41622C20.3863 3.20031 21.1917 4.16337 21.8223 5.30542C22.4615 6.43894 22.8792 7.7344 23.0752 9.19178ZM33.9794 26.9233C32.0618 26.9233 30.3998 26.5014 28.9936 25.6577C27.5873 24.8139 26.4964 23.6335 25.7208 22.1165C24.9538 20.5995 24.5703 18.8267 24.5703 16.7983C24.5703 14.7699 24.9538 12.9929 25.7208 11.4674C26.4964 9.94178 27.5873 8.75712 28.9936 7.91337C30.3998 7.06962 32.0618 6.64775 33.9794 6.64775C35.897 6.64775 37.5589 7.06962 38.9652 7.91337C40.3714 8.75712 41.4581 9.94178 42.2251 11.4674C43.0007 12.9929 43.3885 14.7699 43.3885 16.7983C43.3885 18.8267 43.0007 20.5995 42.2251 22.1165C41.4581 23.6335 40.3714 24.8139 38.9652 25.6577C37.5589 26.5014 35.897 26.9233 33.9794 26.9233ZM34.0049 23.2159C35.0447 23.2159 35.914 22.9304 36.6129 22.3594C37.3118 21.7799 37.8316 21.0043 38.1725 20.0327C38.522 19.0611 38.6967 17.9787 38.6967 16.7855C38.6967 15.5838 38.522 14.4972 38.1725 13.5256C37.8316 12.5455 37.3118 11.7656 36.6129 11.1861C35.914 10.6066 35.0447 10.3168 34.0049 10.3168C32.9396 10.3168 32.0532 10.6066 31.3458 11.1861C30.647 11.7656 30.1228 12.5455 29.7734 13.5256C29.4325 14.4972 29.262 15.5838 29.262 16.7855C29.262 17.9787 29.4325 19.0611 29.7734 20.0327C30.1228 21.0043 30.647 21.7799 31.3458 22.3594C32.0532 22.9304 32.9396 23.2159 34.0049 23.2159ZM50.1442 0.357976V26.5398H45.5164V0.357976H50.1442ZM57.7309 0.357976V26.5398H53.1031V0.357976H57.7309ZM66.3404 26.9361C65.0961 26.9361 63.9753 26.7145 62.9782 26.2713C61.9895 25.8196 61.2054 25.1549 60.6259 24.277C60.0549 23.3992 59.7693 22.3168 59.7693 21.0299C59.7693 19.9219 59.9739 19.0057 60.383 18.2813C60.7921 17.5568 61.3503 16.9773 62.0577 16.5426C62.7651 16.108 63.562 15.7799 64.4483 15.5583C65.3432 15.3281 66.2679 15.162 67.2225 15.0597C68.373 14.9404 69.3063 14.8338 70.0222 14.7401C70.7381 14.6378 71.258 14.4844 71.5818 14.2799C71.9142 14.0668 72.0804 13.7387 72.0804 13.2955V13.2188C72.0804 12.2557 71.7949 11.51 71.2239 10.9816C70.6529 10.4531 69.8304 10.1889 68.7566 10.1889C67.623 10.1889 66.7239 10.4361 66.0591 10.9304C65.4029 11.4247 64.9597 12.0085 64.7296 12.6818L60.4086 12.0682C60.7495 10.875 61.312 9.87786 62.0961 9.07673C62.8801 8.26707 63.839 7.66195 64.9725 7.26139C66.106 6.85229 67.3588 6.64775 68.731 6.64775C69.677 6.64775 70.6188 6.75854 71.5563 6.98014C72.4938 7.20173 73.3503 7.5682 74.1259 8.07957C74.9015 8.58241 75.5236 9.26849 75.9924 10.1378C76.4696 11.0071 76.7083 12.0938 76.7083 13.3977V26.5398H72.2594V23.8424H72.106C71.8247 24.3878 71.4284 24.8992 70.9171 25.3764C70.4142 25.8452 69.7793 26.2245 69.0122 26.5142C68.2537 26.7955 67.3631 26.9361 66.3404 26.9361ZM67.5421 23.5355C68.4711 23.5355 69.2765 23.3523 69.9583 22.9858C70.6401 22.6108 71.1642 22.1165 71.5307 21.5029C71.9057 20.8892 72.0932 20.2202 72.0932 19.4958V17.1818C71.9483 17.3012 71.7012 17.412 71.3517 17.5142C71.0108 17.6165 70.6273 17.706 70.2012 17.7827C69.775 17.8594 69.3532 17.9276 68.9355 17.9872C68.5179 18.0469 68.1557 18.098 67.8489 18.1406C67.1586 18.2344 66.5407 18.3878 65.9952 18.6009C65.4497 18.8139 65.0193 19.1122 64.704 19.4958C64.3887 19.8708 64.231 20.3566 64.231 20.9531C64.231 21.8054 64.5421 22.4489 65.1642 22.8835C65.7864 23.3182 66.579 23.5355 67.5421 23.5355ZM79.7662 26.5398V0.357976H84.3941V10.1506H84.5858C84.8245 9.67332 85.1611 9.16621 85.5958 8.62928C86.0304 8.08383 86.6185 7.61934 87.36 7.23582C88.1015 6.84377 89.0475 6.64775 90.198 6.64775C91.7151 6.64775 93.083 7.03553 94.3017 7.8111C95.529 8.57815 96.5006 9.71593 97.2165 11.2245C97.9409 12.7245 98.3032 14.5654 98.3032 16.7472C98.3032 18.9034 97.9495 20.7358 97.2421 22.2443C96.5347 23.7529 95.5716 24.9034 94.3529 25.696C93.1341 26.4887 91.7534 26.885 90.2108 26.885C89.0858 26.885 88.1526 26.6975 87.4111 26.3225C86.6696 25.9475 86.073 25.4958 85.6213 24.9674C85.1782 24.4304 84.833 23.9233 84.5858 23.446H84.3174V26.5398H79.7662ZM84.3046 16.7216C84.3046 17.9915 84.4836 19.1037 84.8415 20.0583C85.208 21.0128 85.7321 21.7585 86.414 22.2955C87.1043 22.8239 87.9395 23.0881 88.9196 23.0881C89.9424 23.0881 90.7989 22.8154 91.4892 22.2699C92.1796 21.7159 92.6995 20.9617 93.0489 20.0071C93.4068 19.0441 93.5858 17.9489 93.5858 16.7216C93.5858 15.5029 93.4111 14.4205 93.0617 13.4745C92.7122 12.5284 92.1924 11.787 91.502 11.25C90.8117 10.7131 89.9509 10.4446 88.9196 10.4446C87.931 10.4446 87.0915 10.7046 86.4012 11.2245C85.7108 11.7443 85.1867 12.473 84.8287 13.4105C84.4793 14.348 84.3046 15.4517 84.3046 16.7216Z" fill="#364049"/>
<path d="M105.065 0.357976V26.5398H100.437V0.357976H105.065ZM110.901 33.9034C110.27 33.9034 109.686 33.8523 109.149 33.75C108.621 33.6563 108.199 33.5455 107.884 33.4176L108.957 29.8125C109.631 30.0085 110.232 30.1023 110.76 30.0938C111.288 30.0852 111.753 29.9191 112.153 29.5952C112.563 29.2799 112.908 28.7514 113.189 28.01L113.585 26.9489L106.465 6.90343H111.374L115.899 21.733H116.104L120.642 6.90343H125.564L117.702 28.9176C117.335 29.9574 116.849 30.848 116.244 31.5895C115.639 32.3395 114.898 32.9105 114.02 33.3026C113.151 33.7031 112.111 33.9034 110.901 33.9034Z" fill="#3E94DD"/>
</svg>
