<svg viewBox="0 0 402 297" fill="none" xmlns="http://www.w3.org/2000/svg">
<path fill-rule="evenodd" clip-rule="evenodd" d="M0 -51H538V297H0V-51ZM0.840625 -50.3786H66.4094V-1.90714H0.840625V-50.3786ZM68.0906 -50.3786H133.659V-1.90714H68.0906V-50.3786ZM200.909 -50.3786H135.341V-1.90714H200.909V-50.3786ZM202.591 -50.3786H268.159V-1.90714H202.591V-50.3786ZM335.409 -50.3786H269.841V-1.90714H335.409V-50.3786ZM337.091 -50.3786H402.659V-1.90714H337.091V-50.3786ZM469.909 -50.3786H404.341V-1.90714H469.909V-50.3786ZM471.591 -50.3786H537.159V-1.90714H471.591V-50.3786ZM66.4094 -0.664288H0.840625V47.8071H66.4094V-0.664288ZM68.0906 -0.664288H133.659V47.8071H68.0906V-0.664288ZM200.909 -0.664288H135.341V47.8071H200.909V-0.664288ZM202.591 -0.664288H268.159V47.8071H202.591V-0.664288ZM335.409 -0.664288H269.841V47.8071H335.409V-0.664288ZM337.091 -0.664288H402.659V47.8071H337.091V-0.664288ZM469.909 -0.664288H404.341V47.8071H469.909V-0.664288ZM471.591 -0.664288H537.159V47.8071H471.591V-0.664288ZM66.4094 49.05H0.840625V97.5214H66.4094V49.05ZM68.0906 49.05H133.659V97.5214H68.0906V49.05ZM200.909 49.05H135.341V97.5214H200.909V49.05ZM202.591 49.05H268.159V97.5214H202.591V49.05ZM335.409 49.05H269.841V97.5214H335.409V49.05ZM337.091 49.05H402.659V97.5214H337.091V49.05ZM469.909 49.05H404.341V97.5214H469.909V49.05ZM471.591 49.05H537.159V97.5214H471.591V49.05ZM66.4094 98.7643H0.840625V147.236H66.4094V98.7643ZM68.0906 98.7643H133.659V147.236H68.0906V98.7643ZM200.909 98.7643H135.341V147.236H200.909V98.7643ZM202.591 98.7643H268.159V147.236H202.591V98.7643ZM335.409 98.7643H269.841V147.236H335.409V98.7643ZM337.091 98.7643H402.659V147.236H337.091V98.7643ZM469.909 98.7643H404.341V147.236H469.909V98.7643ZM471.591 98.7643H537.159V147.236H471.591V98.7643ZM66.4094 148.479H0.840625V196.95H66.4094V148.479ZM68.0906 148.479H133.659V196.95H68.0906V148.479ZM200.909 148.479H135.341V196.95H200.909V148.479ZM202.591 148.479H268.159V196.95H202.591V148.479ZM335.409 148.479H269.841V196.95H335.409V148.479ZM337.091 148.479H402.659V196.95H337.091V148.479ZM469.909 148.479H404.341V196.95H469.909V148.479ZM471.591 148.479H537.159V196.95H471.591V148.479ZM66.4094 198.193H0.840625V246.664H66.4094V198.193ZM68.0906 198.193H133.659V246.664H68.0906V198.193ZM200.909 198.193H135.341V246.664H200.909V198.193ZM202.591 198.193H268.159V246.664H202.591V198.193ZM335.409 198.193H269.841V246.664H335.409V198.193ZM337.091 198.193H402.659V246.664H337.091V198.193ZM469.909 198.193H404.341V246.664H469.909V198.193ZM471.591 198.193H537.159V246.664H471.591V198.193ZM66.4094 247.907H0.840625V296.379H66.4094V247.907ZM68.0906 247.907H133.659V296.379H68.0906V247.907ZM200.909 247.907H135.341V296.379H200.909V247.907ZM202.591 247.907H268.159V296.379H202.591V247.907ZM335.409 247.907H269.841V296.379H335.409V247.907ZM337.091 247.907H402.659V296.379H337.091V247.907ZM469.909 247.907H404.341V296.379H469.909V247.907ZM471.591 247.907H537.159V296.379H471.591V247.907Z" fill="url(#paint0_radial_36_694)" fill-opacity="0.3"/>
<defs>
<radialGradient id="paint0_radial_36_694" cx="0" cy="0" r="1" gradientUnits="userSpaceOnUse" gradientTransform="translate(269.187 123) rotate(90) scale(174 269)">
<stop stop-color="#E1E1E1"/>
<stop offset="1" stop-color="#E1E1E1" stop-opacity="0"/>
</radialGradient>
</defs>
</svg>
