<svg viewBox="0 0 50 50" fill="none" xmlns="http://www.w3.org/2000/svg">
<rect x="0.5" y="0.5" width="49" height="49" rx="15.5" stroke="url(#paint0_linear_81_1403)"/>
<path d="M30.2375 12.5H19.7625C15.2125 12.5 12.5 15.2125 12.5 19.7625V30.225C12.5 34.7875 15.2125 37.5 19.7625 37.5H30.225C34.775 37.5 37.4875 34.7875 37.4875 30.2375V19.7625C37.5 15.2125 34.7875 12.5 30.2375 12.5ZM31.1 24.4125C31.1 24.9 30.7125 25.2875 30.225 25.2875C29.7375 25.2875 29.35 24.9 29.35 24.4125V24.1875L25.95 27.5875C25.7625 27.775 25.5125 27.8625 25.25 27.8375C24.9875 27.8125 24.75 27.675 24.6125 27.45L23.3375 25.55L20.3625 28.525C20.1875 28.7 19.975 28.775 19.75 28.775C19.525 28.775 19.3 28.6875 19.1375 28.525C18.8 28.1875 18.8 27.6375 19.1375 27.2875L22.8625 23.5625C23.05 23.375 23.3 23.2875 23.5625 23.3125C23.825 23.3375 24.0625 23.475 24.2 23.7L25.475 25.6L28.1125 22.9625H27.8875C27.4 22.9625 27.0125 22.575 27.0125 22.0875C27.0125 21.6 27.4 21.2125 27.8875 21.2125H30.2125C30.325 21.2125 30.4375 21.2375 30.55 21.275C30.7625 21.3625 30.9375 21.5375 31.025 21.75C31.075 21.8625 31.0875 21.975 31.0875 22.0875V24.4125H31.1Z" fill="url(#paint1_radial_81_1403)"/>
<defs>
<linearGradient id="paint0_linear_81_1403" x1="-8.125" y1="9.375" x2="50" y2="33.75" gradientUnits="userSpaceOnUse">
<stop stop-color="#364049"/>
<stop offset="1" stop-color="#364049" stop-opacity="0"/>
</linearGradient>
<radialGradient id="paint1_radial_81_1403" cx="0" cy="0" r="1" gradientTransform="matrix(23.6966 6.74939 -6.59709 12.2717 24.9938 25)" gradientUnits="userSpaceOnUse">
<stop stop-color="#364049"/>
<stop offset="0.406045" stop-color="#364049" stop-opacity="0.731985"/>
<stop offset="1" stop-color="#364049" stop-opacity="0"/>
</radialGradient>
</defs>
</svg>
