<svg viewBox="0 0 18 15" fill="none" xmlns="http://www.w3.org/2000/svg">
<path fill-rule="evenodd" clip-rule="evenodd" d="M1.23741 6.4574C6.06923 4.34056 9.29121 2.945 10.9033 2.27074C15.5063 0.345581 16.4627 0.0111605 17.0861 0.000117741C17.2232 -0.00231099 17.5298 0.031858 17.7284 0.19389C17.8961 0.330707 17.9422 0.515527 17.9643 0.645244C17.9864 0.774961 18.0139 1.07046 17.992 1.30136C17.7426 3.93675 16.6633 10.3322 16.1142 13.2838C15.8818 14.5328 15.4244 14.9516 14.9815 14.9926C14.0189 15.0816 13.288 14.3529 12.3558 13.7384C10.897 12.7769 10.0729 12.1783 8.65691 11.24C7.02048 10.1556 8.08131 9.55963 9.01391 8.58562C9.25797 8.33071 13.4988 4.45188 13.5809 4.10001C13.5912 4.05601 13.6007 3.89197 13.5038 3.80535C13.4069 3.71873 13.2639 3.74835 13.1606 3.77191C13.0143 3.8053 10.6839 5.35418 6.16938 8.41854C5.5079 8.87529 4.90875 9.09783 4.37193 9.08617C3.78013 9.07331 2.64175 8.7497 1.79548 8.47308C0.757494 8.1338 -0.0674757 7.95442 0.00436067 7.37821C0.0417775 7.07809 0.452793 6.77115 1.23741 6.4574Z" fill="#364049" fill-opacity="0.8"/>
</svg>
