<svg viewBox="0 0 44 44" fill="none" xmlns="http://www.w3.org/2000/svg">
<rect width="44" height="44" rx="16" fill="currentColor"/>
<path d="M13.1768 21.3752C18.0981 19.1761 21.3798 17.7262 23.0217 17.0258C27.7099 15.0258 28.6841 14.6783 29.319 14.6667C29.4587 14.6643 29.7709 14.6998 29.9732 14.8682C30.144 15.0103 30.191 15.2023 30.2135 15.3371C30.2359 15.4718 30.2639 15.7788 30.2417 16.0187C29.9876 18.7566 28.8883 25.4006 28.3291 28.4671C28.0924 29.7646 27.6265 30.1997 27.1754 30.2422C26.1951 30.3348 25.4506 29.5777 24.5011 28.9394C23.0153 27.9404 22.1759 27.3186 20.7337 26.3438C19.067 25.2172 20.1475 24.5981 21.0973 23.5862C21.3459 23.3214 25.6653 19.2917 25.7489 18.9262C25.7594 18.8804 25.7691 18.71 25.6704 18.62C25.5717 18.5301 25.426 18.5608 25.3209 18.5853C25.1718 18.62 22.7983 20.2291 18.2001 23.4126C17.5264 23.8871 16.9162 24.1183 16.3694 24.1062C15.7666 24.0928 14.6072 23.7566 13.7452 23.4693C12.688 23.1168 11.8478 22.9304 11.9209 22.3318C11.9591 22.02 12.3777 21.7012 13.1768 21.3752Z" fill="white"/>
</svg>
