<svg viewBox="0 0 62 62" fill="none" xmlns="http://www.w3.org/2000/svg">
<rect width="62" height="62" rx="18" fill="#1D97E5"/>
<path opacity="0.4" d="M45.6459 26.4875C41.9884 20.74 36.6367 17.4308 31.0001 17.4308C28.1817 17.4308 25.4426 18.2542 22.9409 19.79C20.4392 21.3417 18.1909 23.6058 16.3542 26.4875C14.7709 28.9733 14.7709 33.0108 16.3542 35.4967C20.0117 41.26 25.3634 44.5533 31.0001 44.5533C33.8184 44.5533 36.5576 43.73 39.0592 42.1942C41.5609 40.6425 43.8092 38.3783 45.6459 35.4967C47.2292 33.0267 47.2292 28.9733 45.6459 26.4875ZM31.0001 37.3967C27.4534 37.3967 24.6034 34.5308 24.6034 31C24.6034 27.4692 27.4534 24.6033 31.0001 24.6033C34.5467 24.6033 37.3967 27.4692 37.3967 31C37.3967 34.5308 34.5467 37.3967 31.0001 37.3967Z" fill="url(#paint0_radial_36_578)"/>
<path d="M31 26.4717C28.5142 26.4717 26.4875 28.4983 26.4875 31C26.4875 33.4858 28.5142 35.5125 31 35.5125C33.4859 35.5125 35.5284 33.4858 35.5284 31C35.5284 28.5142 33.4859 26.4717 31 26.4717Z" fill="url(#paint1_radial_36_578)"/>
<defs>
<radialGradient id="paint0_radial_36_578" cx="0" cy="0" r="1" gradientTransform="matrix(30.0307 7.32241 -8.36048 13.3135 31.0001 30.9921)" gradientUnits="userSpaceOnUse">
<stop stop-color="white"/>
<stop offset="0.406045" stop-color="white" stop-opacity="0.731985"/>
<stop offset="1" stop-color="white" stop-opacity="0"/>
</radialGradient>
<radialGradient id="paint1_radial_36_578" cx="0" cy="0" r="1" gradientTransform="matrix(8.57375 2.4408 -2.38692 4.43785 31.008 30.9921)" gradientUnits="userSpaceOnUse">
<stop stop-color="white"/>
<stop offset="0.406045" stop-color="white" stop-opacity="0.731985"/>
<stop offset="1" stop-color="white" stop-opacity="0"/>
</radialGradient>
</defs>
</svg>
