<svg viewBox="0 0 62 62" fill="none" xmlns="http://www.w3.org/2000/svg">
<rect width="62" height="62" rx="18" fill="#1D97E5"/>
<path d="M46.3108 23.0042C45.2975 19.5683 42.4317 16.7025 38.9958 15.6892C36.3833 14.9292 34.5783 14.9925 33.3275 15.9267C31.8233 17.0508 31.6492 19.0775 31.6492 20.5183V24.4608C31.6492 28.3558 33.4225 30.335 36.9058 30.335H41.45C42.875 30.335 44.9175 30.1608 46.0417 28.6567C47.0075 27.4217 47.0867 25.6167 46.3108 23.0042Z" fill="url(#paint0_radial_36_585)"/>
<path opacity="0.4" d="M41.9408 33.1534C41.5291 32.6784 40.9275 32.4092 40.31 32.4092H34.6416C31.855 32.4092 29.5908 30.145 29.5908 27.3584V21.69C29.5908 21.0725 29.3216 20.4709 28.8466 20.0592C28.3875 19.6475 27.7541 19.4575 27.1525 19.5367C23.4316 20.0117 20.0116 22.0542 17.7791 25.1259C15.5308 28.2134 14.7075 31.9817 15.42 35.75C16.4491 41.1967 20.8033 45.5509 26.2658 46.58C27.1366 46.7542 28.0075 46.8334 28.8783 46.8334C31.7441 46.8334 34.515 45.9467 36.8741 44.2209C39.9458 41.9884 41.9883 38.5684 42.4633 34.8475C42.5425 34.23 42.3525 33.6125 41.9408 33.1534Z" fill="url(#paint1_radial_36_585)"/>
<defs>
<radialGradient id="paint0_radial_36_585" cx="0" cy="0" r="1" gradientTransform="matrix(14.4021 4.09483 -4.00953 7.44518 39.2425 22.7513)" gradientUnits="userSpaceOnUse">
<stop stop-color="white"/>
<stop offset="0.406045" stop-color="white" stop-opacity="0.731985"/>
<stop offset="1" stop-color="white" stop-opacity="0"/>
</radialGradient>
<radialGradient id="paint1_radial_36_585" cx="0" cy="0" r="1" gradientTransform="matrix(25.8993 7.37419 -7.21032 13.4077 28.8258 33.1762)" gradientUnits="userSpaceOnUse">
<stop stop-color="white"/>
<stop offset="0.406045" stop-color="white" stop-opacity="0.731985"/>
<stop offset="1" stop-color="white" stop-opacity="0"/>
</radialGradient>
</defs>
</svg>
