<svg viewBox="0 0 62 62" fill="none" xmlns="http://www.w3.org/2000/svg">
<rect width="62" height="62" rx="18" fill="#1D97E5"/>
<path d="M34.9583 29.0208H25.4583C24.8091 29.0208 24.2708 28.4825 24.2708 27.8333C24.2708 27.1842 24.8091 26.6458 25.4583 26.6458H34.9583C35.6074 26.6458 36.1458 27.1842 36.1458 27.8333C36.1458 28.4825 35.6074 29.0208 34.9583 29.0208Z" fill="url(#paint0_radial_36_564)"/>
<path d="M30.2083 33.7708H25.4583C24.8091 33.7708 24.2708 33.2325 24.2708 32.5833C24.2708 31.9342 24.8091 31.3958 25.4583 31.3958H30.2083C30.8574 31.3958 31.3958 31.9342 31.3958 32.5833C31.3958 33.2325 30.8574 33.7708 30.2083 33.7708Z" fill="url(#paint1_radial_36_564)"/>
<path opacity="0.4" d="M30.2084 45.25C38.5157 45.25 45.2501 38.5156 45.2501 30.2083C45.2501 21.901 38.5157 15.1667 30.2084 15.1667C21.9011 15.1667 15.1667 21.901 15.1667 30.2083C15.1667 38.5156 21.9011 45.25 30.2084 45.25Z" fill="url(#paint2_radial_36_564)"/>
<path d="M45.725 46.8333C45.44 46.8333 45.1551 46.7225 44.9492 46.5167L42.0042 43.5717C41.5767 43.1442 41.5767 42.4475 42.0042 42.0042C42.4317 41.5767 43.1284 41.5767 43.5717 42.0042L46.5167 44.9492C46.9442 45.3767 46.9442 46.0733 46.5167 46.5167C46.2951 46.7225 46.01 46.8333 45.725 46.8333Z" fill="url(#paint3_radial_36_564)"/>
<defs>
<radialGradient id="paint0_radial_36_564" cx="0" cy="0" r="1" gradientTransform="matrix(11.2615 0.641192 -3.13518 1.16581 30.2083 27.8333)" gradientUnits="userSpaceOnUse">
<stop stop-color="white"/>
<stop offset="0.406045" stop-color="white" stop-opacity="0.731985"/>
<stop offset="1" stop-color="white" stop-opacity="0"/>
</radialGradient>
<radialGradient id="paint1_radial_36_564" cx="0" cy="0" r="1" gradientTransform="matrix(6.7569 0.641192 -1.88111 1.16581 27.8333 32.5833)" gradientUnits="userSpaceOnUse">
<stop stop-color="white"/>
<stop offset="0.406045" stop-color="white" stop-opacity="0.731985"/>
<stop offset="1" stop-color="white" stop-opacity="0"/>
</radialGradient>
<radialGradient id="paint2_radial_36_564" cx="0" cy="0" r="1" gradientTransform="matrix(28.5291 8.12176 -7.94246 14.7669 30.2084 30.2083)" gradientUnits="userSpaceOnUse">
<stop stop-color="white"/>
<stop offset="0.406045" stop-color="white" stop-opacity="0.731985"/>
<stop offset="1" stop-color="white" stop-opacity="0"/>
</radialGradient>
<radialGradient id="paint3_radial_36_564" cx="0" cy="0" r="1" gradientTransform="matrix(4.88749 1.39032 -1.36067 2.52786 44.2605 44.2584)" gradientUnits="userSpaceOnUse">
<stop stop-color="white"/>
<stop offset="0.406045" stop-color="white" stop-opacity="0.731985"/>
<stop offset="1" stop-color="white" stop-opacity="0"/>
</radialGradient>
</defs>
</svg>
