<svg viewBox="0 0 62 62" fill="none" xmlns="http://www.w3.org/2000/svg">
<rect width="62" height="62" rx="18" fill="#1D97E5"/>
<path opacity="0.4" d="M46.2949 28.53L44.7432 35.1483C43.4132 40.8642 40.7849 43.1758 35.8449 42.7008C35.0532 42.6375 34.1982 42.495 33.2799 42.2733L30.6199 41.64C24.0174 40.0725 21.9749 36.8108 23.5265 30.1925L25.0782 23.5583C25.3949 22.2125 25.7749 21.0408 26.2499 20.075C28.1024 16.2433 31.2532 15.2142 36.5415 16.465L39.1857 17.0825C45.8199 18.6342 47.8465 21.9117 46.2949 28.53Z" fill="url(#paint0_radial_36_557)"/>
<path d="M35.8451 42.7008C34.8634 43.3658 33.6284 43.92 32.1242 44.4108L29.6226 45.2342C23.3367 47.2608 20.0276 45.5667 17.9851 39.2808L15.9584 33.0267C13.9317 26.7408 15.6101 23.4158 21.8959 21.3892L24.3976 20.5658C25.0467 20.36 25.6642 20.1858 26.2501 20.075C25.7751 21.0408 25.3951 22.2125 25.0784 23.5583L23.5267 30.1925C21.9751 36.8108 24.0176 40.0725 30.6201 41.64L33.2801 42.2733C34.1984 42.495 35.0534 42.6375 35.8451 42.7008Z" fill="url(#paint1_radial_36_557)"/>
<path d="M39.6924 28.6408C39.5974 28.6408 39.5024 28.625 39.3916 28.6092L31.7124 26.6617C31.0791 26.5033 30.6991 25.8542 30.8574 25.2208C31.0158 24.5875 31.6649 24.2075 32.2983 24.3658L39.9774 26.3133C40.6108 26.4717 40.9908 27.1208 40.8324 27.7542C40.7058 28.2767 40.2149 28.6408 39.6924 28.6408Z" fill="url(#paint2_radial_36_557)"/>
<path d="M35.0534 33.9925C34.9584 33.9925 34.8634 33.9767 34.7525 33.9608L30.145 32.7892C29.5117 32.6308 29.1317 31.9817 29.29 31.3483C29.4484 30.715 30.0975 30.335 30.7309 30.4933L35.3384 31.665C35.9717 31.8233 36.3517 32.4725 36.1934 33.1058C36.0667 33.6442 35.5917 33.9925 35.0534 33.9925Z" fill="url(#paint3_radial_36_557)"/>
<defs>
<radialGradient id="paint0_radial_36_557" cx="0" cy="0" r="1" gradientTransform="matrix(22.5287 7.23549 -6.27196 13.1555 34.9115 29.3609)" gradientUnits="userSpaceOnUse">
<stop stop-color="white"/>
<stop offset="0.406045" stop-color="white" stop-opacity="0.731985"/>
<stop offset="1" stop-color="white" stop-opacity="0"/>
</radialGradient>
<radialGradient id="paint1_radial_36_557" cx="0" cy="0" r="1" gradientTransform="matrix(19.6311 7.01134 -5.46525 12.748 25.4948 33.0602)" gradientUnits="userSpaceOnUse">
<stop stop-color="white"/>
<stop offset="0.406045" stop-color="white" stop-opacity="0.731985"/>
<stop offset="1" stop-color="white" stop-opacity="0"/>
</radialGradient>
<radialGradient id="paint2_radial_36_557" cx="0" cy="0" r="1" gradientTransform="matrix(9.52773 1.16383 -2.6525 2.11607 35.8449 26.4854)" gradientUnits="userSpaceOnUse">
<stop stop-color="white"/>
<stop offset="0.406045" stop-color="white" stop-opacity="0.731985"/>
<stop offset="1" stop-color="white" stop-opacity="0"/>
</radialGradient>
<radialGradient id="paint3_radial_36_557" cx="0" cy="0" r="1" gradientTransform="matrix(6.61476 0.954379 -1.84154 1.73524 32.7417 32.225)" gradientUnits="userSpaceOnUse">
<stop stop-color="white"/>
<stop offset="0.406045" stop-color="white" stop-opacity="0.731985"/>
<stop offset="1" stop-color="white" stop-opacity="0"/>
</radialGradient>
</defs>
</svg>
