<svg viewBox="0 0 62 62" fill="none" xmlns="http://www.w3.org/2000/svg">
<rect width="62" height="62" rx="18" fill="#1D97E5"/>
<path opacity="0.4" d="M29.0208 15.8792C30.1133 14.945 31.9025 14.945 33.0108 15.8792L35.5125 18.0325C35.9875 18.4442 36.8741 18.7767 37.5075 18.7767H40.1991C41.8775 18.7767 43.255 20.1542 43.255 21.8325V24.5242C43.255 25.1417 43.5875 26.0442 43.9991 26.5192L46.1525 29.0208C47.0866 30.1133 47.0866 31.9025 46.1525 33.0108L43.9991 35.5125C43.5875 35.9875 43.255 36.8742 43.255 37.5075V40.1992C43.255 41.8775 41.8775 43.255 40.1991 43.255H37.5075C36.89 43.255 35.9875 43.5875 35.5125 43.9992L33.0108 46.1525C31.9183 47.0867 30.1291 47.0867 29.0208 46.1525L26.5191 43.9992C26.0441 43.5875 25.1575 43.255 24.5241 43.255H21.785C20.1066 43.255 18.7291 41.8775 18.7291 40.1992V37.4917C18.7291 36.8742 18.3966 35.9875 18.0008 35.5125L15.8633 32.995C14.945 31.9025 14.945 30.1292 15.8633 29.0367L18.0008 26.5192C18.3966 26.0442 18.7291 25.1575 18.7291 24.54V21.8167C18.7291 20.1383 20.1066 18.7608 21.785 18.7608H24.5241C25.1416 18.7608 26.0441 18.4283 26.5191 18.0167L29.0208 15.8792Z" fill="url(#paint0_radial_36_592)"/>
<path d="M29.0841 36.0192C28.7674 36.0192 28.4666 35.8925 28.2449 35.6708L24.4132 31.8392C23.9541 31.38 23.9541 30.62 24.4132 30.1608C24.8724 29.7017 25.6324 29.7017 26.0916 30.1608L29.0841 33.1533L35.8924 26.345C36.3516 25.8858 37.1116 25.8858 37.5707 26.345C38.0299 26.8042 38.0299 27.5642 37.5707 28.0233L29.9232 35.6708C29.7016 35.8925 29.4007 36.0192 29.0841 36.0192Z" fill="url(#paint1_radial_36_592)"/>
<defs>
<radialGradient id="paint0_radial_36_592" cx="0" cy="0" r="1" gradientTransform="matrix(30.0419 8.55136 -8.36362 15.548 31.0138 31.0158)" gradientUnits="userSpaceOnUse">
<stop stop-color="white"/>
<stop offset="0.406045" stop-color="white" stop-opacity="0.731985"/>
<stop offset="1" stop-color="white" stop-opacity="0"/>
</radialGradient>
<radialGradient id="paint1_radial_36_592" cx="0" cy="0" r="1" gradientTransform="matrix(13.1309 2.70476 -3.65562 4.91777 30.992 31.0099)" gradientUnits="userSpaceOnUse">
<stop stop-color="white"/>
<stop offset="0.406045" stop-color="white" stop-opacity="0.731985"/>
<stop offset="1" stop-color="white" stop-opacity="0"/>
</radialGradient>
</defs>
</svg>
